<svg width="1855.978759765625px" height="313.76000366210934px" xmlns="http://www.w3.org/2000/svg" viewBox="-677.9893798828125 -81.88000183105467 1855.978759765625 313.76000366210934" style="background: rgb(255, 255, 255);" preserveAspectRatio="xMidYMid"><defs><filter id="editing-extrude-glow"><feFlood flood-color="#386484" result="flood-1"></feFlood><feMorphology operator="erode" radius="1" in="SourceAlpha" result="erode"></feMorphology><feComposite operator="in" in="flood-1" in2="erode" result="comp1"></feComposite><feConvolveMatrix order="2,2" divisor="1" in="comp1" result="convolve" kernelMatrix="0 0 1 1"></feConvolveMatrix><feOffset dx="-2" dy="0" in="convolve" result="extrude"></feOffset><feComposite operator="in" in="flood-1" in2="extrude" result="comp-extrude"></feComposite><feFlood flood-color="#637e81" result="flood-2"></feFlood><feComposite operator="in" in="flood-2" in2="SourceAlpha" result="comp2"></feComposite><feMorphology operator="dilate" radius="1" in="comp2" result="dilate"></feMorphology><feOffset dx="-3" dy="0" in="dilate" result="offset"></feOffset><feGaussianBlur in="offset" stdDeviation="5.8" result="blur"></feGaussianBlur><feComponentTransfer in="blur" result="shadow"><feFuncA type="linear" slope="0.8" intercept="-0.2"></feFuncA></feComponentTransfer><feMerge><feMergeNode in="shadow"></feMergeNode><feMergeNode in="comp-extrude"></feMergeNode><feMergeNode in="SourceGraphic"></feMergeNode></feMerge></filter></defs><g filter="url(#editing-extrude-glow)"><g transform="translate(-423.8396825790405, 160.0999984741211)"><path d="M75.48-123.39L75.48-123.39L75.48-123.39Q120.80-123.39 120.80-91.39L120.80-91.39L120.80-91.39Q120.80-73.81 109.52-63.27L109.52-63.27L109.52-63.27Q98.42-52.73 79.00-52.73L79.00-52.73L79.00-52.73Q69.93-52.73 62.90-57.91L62.90-57.91L62.90-57.91Q59.57-60.13 57.35-63.09L57.35-63.09L57.35-63.09Q70.86-63.09 77.98-71.32L77.98-71.32L77.98-71.32Q85.10-79.55 85.10-95.64L85.10-95.64L85.10-95.64Q85.10-111.74 69.19-111.74L69.19-111.74L64.75-111.74L64.75-111.74Q63.64-111.74 62.71-111.55L62.71-111.55L41.44 0L1.29 0L24.05-121.17L24.05-121.17Q43.84-123.02 55.31-123.21L55.31-123.21L55.31-123.21Q66.78-123.39 75.48-123.39ZM199.06-28.49L199.06-28.49L199.06-28.49Q202.57-24.05 202.57-15.45L202.57-15.45L202.57-15.45Q202.57-6.84 196.01-1.57L196.01-1.57L196.01-1.57Q189.44 3.70 177.97 3.70L177.97 3.70L177.97 3.70Q171.31 3.70 160.95 2.22L160.95 2.22L160.95 2.22Q140.60-0.93 134.77-0.93L134.77-0.93L134.77-0.93Q128.94-0.93 126.54-0.65L126.54-0.65L126.54-0.65Q124.13-0.37 120.25 0L120.25 0L142.63-122.10L183.15-122.10L164.65-20.35L164.65-20.35Q167.06-19.98 169.27-19.98L169.27-19.98L173.90-19.98L173.90-19.98Q189.44-19.98 199.06-28.49ZM296.19 3.70L296.19 3.70L296.19 3.70Q272.50 3.70 270.28-29.97L270.28-29.97L238.46-29.97L238.46-29.97Q234.76-21.46 232.17-14.06L232.17-14.06L227.36 0L201.46 0L259.74-122.10L299.51-122.10L307.28-32.19L307.28-32.19Q309.13-12.77 316.53-7.03L316.53-7.03L316.53-7.03Q311.17 3.70 296.19 3.70ZM254.38-66.97L244.20-43.48L269.73-43.48L267.51-91.02L267.51-96.02L254.38-66.97ZM421.80-38.30L421.80-38.30L421.80-38.30Q426.61-34.78 426.61-27.29L426.61-27.29L426.61-27.29Q426.61-19.79 423.37-14.52L423.37-14.52L423.37-14.52Q420.13-9.25 413.84-5.18L413.84-5.18L413.84-5.18Q400.34 3.52 376.75 3.52L376.75 3.52L376.75 3.52Q353.16 3.52 340.31-8.79L340.31-8.79L340.31-8.79Q327.45-21.09 327.45-42.92L327.45-42.92L327.45-42.92Q327.45-73.81 343.54-97.31L343.54-97.31L343.54-97.31Q355.75-114.70 377.58-122.10L377.58-122.10L377.58-122.10Q388.87-125.80 399.97-125.80L399.97-125.80L399.97-125.80Q411.07-125.80 417.91-124.32L417.91-124.32L417.91-124.32Q424.76-122.84 429.94-119.88L429.94-119.88L429.94-119.88Q441.22-113.41 441.22-103.05L441.22-103.05L441.22-103.05Q441.22-93.61 432.34-86.58L432.34-86.58L432.34-86.58Q424.20-80.29 417.54-80.29L417.54-80.29L417.54-80.29Q410.88-80.29 408.11-81.22L408.11-81.22L408.11-81.22Q408.85-87.88 408.85-92.22L408.85-92.22L408.85-92.22Q408.85-96.57 408.66-99.72L408.66-99.72L408.66-99.72Q408.48-102.86 407.55-105.82L407.55-105.82L407.55-105.82Q405.70-112.66 400.06-112.66L400.06-112.66L400.06-112.66Q394.42-112.66 388.78-107.39L388.78-107.39L388.78-107.39Q383.13-102.12 378.32-93.24L378.32-93.24L378.32-93.24Q367.41-73.08 367.41-49.21L367.41-49.21L367.41-49.21Q367.41-37.74 373.88-31.17L373.88-31.17L373.88-31.17Q380.36-24.61 394.24-24.61L394.24-24.61L394.24-24.61Q404.59-24.61 414.40-31.45L414.40-31.45L414.40-31.45Q418.65-34.41 421.80-38.30ZM562.03-76.78L562.03-76.78L562.03-76.78Q562.03 2.04 476.56 2.04L476.56 2.04L476.56 2.04Q462.87 2.04 440.30-1.29L440.30-1.29L461.02-110.63L461.02-110.63Q462.50-118.03 463.43-122.28L463.43-122.28L463.43-122.28Q491.55-124.32 504.03-124.32L504.03-124.32L504.03-124.32Q516.52-124.32 527.99-121.73L527.99-121.73L527.99-121.73Q539.46-119.14 547.04-113.41L547.04-113.41L547.04-113.41Q562.03-102.12 562.03-76.78ZM523.92-83.62L523.92-83.62L523.92-83.62Q523.92-111.19 504.13-111.19L504.13-111.19L502.27-111.19L502.27-111.19Q501.35-111.19 500.43-111L500.43-111L481.37-11.65L481.37-11.65Q482.11-11.29 482.85-11.29L482.85-11.29L484.33-11.29L484.33-11.29Q491.18-11.29 498.30-15.54L498.30-15.54L498.30-15.54Q505.42-19.79 510.97-28.49L510.97-28.49L510.97-28.49Q523.92-48.66 523.92-83.62ZM646.39-31.27L646.39-31.27L646.39-31.27Q651.01-28.12 651.01-21.18L651.01-21.18L651.01-21.18Q651.01-14.24 647.50-9.80L647.50-9.80L647.50-9.80Q643.98-5.37 638.25-2.40L638.25-2.40L638.25-2.40Q626.41 3.70 613.64 3.70L613.64 3.70L613.64 3.70Q600.88 3.70 593.39 0.93L593.39 0.93L593.39 0.93Q585.89-1.85 580.90-7.03L580.90-7.03L580.90-7.03Q571.09-16.84 571.09-34.78L571.09-34.78L571.09-34.78Q571.09-62.71 586.26-79.73L586.26-79.73L586.26-79.73Q602.54-98.05 630.85-98.05L630.85-98.05L630.85-98.05Q648.42-98.05 657.12-90.65L657.12-90.65L657.12-90.65Q663.59-85.10 663.59-76.03L663.59-76.03L663.59-76.03Q663.59-43.48 607.35-43.48L607.35-43.48L607.35-43.48Q606.61-38.66 606.61-34.59L606.61-34.59L606.61-34.59Q606.61-26.09 610.41-22.85L610.41-22.85L610.41-22.85Q614.20-19.61 621.23-19.61L621.23-19.61L621.23-19.61Q628.26-19.61 635.75-22.85L635.75-22.85L635.75-22.85Q643.24-26.09 646.39-31.27ZM608.65-51.43L608.65-51.43L608.65-51.43Q621.78-51.43 629.37-59.57L629.37-59.57L629.37-59.57Q636.95-67.34 636.95-79.73L636.95-79.73L636.95-79.73Q636.95-83.99 635.38-86.30L635.38-86.30L635.38-86.30Q633.81-88.61 630.66-88.61L630.66-88.61L630.66-88.61Q627.52-88.61 624.84-87.41L624.84-87.41L624.84-87.41Q622.15-86.21 619.38-82.14L619.38-82.14L619.38-82.14Q612.53-72.89 608.65-51.43ZM737.04-91.20L737.04-91.20L737.04-91.20Q743.14-98.05 753.69-98.05L753.69-98.05L753.69-98.05Q760.16-98.05 765.16-94.53L765.16-94.53L765.16-94.53Q770.15-91.02 770.15-84.45L770.15-84.45L770.15-84.45Q770.15-77.89 768.12-70.86L768.12-70.86L768.12-70.86Q766.08-63.82 762.94-56.61L762.94-56.61L762.94-56.61Q756.65-42.55 747.95-30.89L747.95-30.89L747.95-30.89Q735.74-14.06 724.00-5.18L724.00-5.18L724.00-5.18Q712.25 3.70 699.48 3.70L699.48 3.70L699.48 3.70Q689.12 3.70 682.83 1.29L682.83 1.29L682.83 1.29Q681.72-37.55 680.34-51.43L680.34-51.43L680.34-51.43Q678.95-65.30 677.84-72.89L677.84-72.89L677.84-72.89Q675.99-87.69 670.44-91.20L670.44-91.20L670.44-91.20Q674.69-94.91 678.86-96.48L678.86-96.48L678.86-96.48Q683.02-98.05 691.62-98.05L691.62-98.05L691.62-98.05Q700.22-98.05 706.33-91.30L706.33-91.30L706.33-91.30Q712.43-84.55 713.64-72.61L713.64-72.61L713.64-72.61Q714.84-60.68 714.84-46.25L714.84-46.25L714.84-46.25Q714.84-31.82 713.73-14.43L713.73-14.43L713.73-14.43Q719.46-18.50 725.57-30.89L725.57-30.89L725.57-30.89Q733.89-48.10 736.85-68.82L736.85-68.82L736.85-68.82Q737.78-75.11 737.78-81.77L737.78-81.77L737.78-81.77Q737.78-88.43 737.04-91.20ZM850.07-31.27L850.07-31.27L850.07-31.27Q854.70-28.12 854.70-21.18L854.70-21.18L854.70-21.18Q854.70-14.24 851.18-9.80L851.18-9.80L851.18-9.80Q847.67-5.37 841.93-2.40L841.93-2.40L841.93-2.40Q830.09 3.70 817.33 3.70L817.33 3.70L817.33 3.70Q804.56 3.70 797.07 0.93L797.07 0.93L797.07 0.93Q789.58-1.85 784.58-7.03L784.58-7.03L784.58-7.03Q774.78-16.84 774.78-34.78L774.78-34.78L774.78-34.78Q774.78-62.71 789.95-79.73L789.95-79.73L789.95-79.73Q806.23-98.05 834.53-98.05L834.53-98.05L834.53-98.05Q852.11-98.05 860.80-90.65L860.80-90.65L860.80-90.65Q867.28-85.10 867.28-76.03L867.28-76.03L867.28-76.03Q867.28-43.48 811.04-43.48L811.04-43.48L811.04-43.48Q810.30-38.66 810.30-34.59L810.30-34.59L810.30-34.59Q810.30-26.09 814.09-22.85L814.09-22.85L814.09-22.85Q817.88-19.61 824.91-19.61L824.91-19.61L824.91-19.61Q831.94-19.61 839.44-22.85L839.44-22.85L839.44-22.85Q846.93-26.09 850.07-31.27ZM812.33-51.43L812.33-51.43L812.33-51.43Q825.47-51.43 833.05-59.57L833.05-59.57L833.05-59.57Q840.64-67.34 840.64-79.73L840.64-79.73L840.64-79.73Q840.64-83.99 839.07-86.30L839.07-86.30L839.07-86.30Q837.49-88.61 834.35-88.61L834.35-88.61L834.35-88.61Q831.20-88.61 828.52-87.41L828.52-87.41L828.52-87.41Q825.84-86.21 823.06-82.14L823.06-82.14L823.06-82.14Q816.22-72.89 812.33-51.43ZM917.78-10.18L917.78-10.18L917.78-10.18Q912.05 3.70 893.73 3.70L893.73 3.70L893.73 3.70Q884.48 3.70 878.56-2.77L878.56-2.77L878.56-2.77Q873.75-8.14 873.75-14.24L873.75-14.24L873.75-14.24Q873.75-28.12 880.23-58.46L880.23-58.46L893.73-129.50L931.29-133.20L913.34-39.59L913.34-39.59Q910.20-25.90 910.20-21.09L910.20-21.09L910.20-21.09Q910.20-10.54 917.78-10.18ZM973.84 3.70L973.84 3.70L973.84 3.70Q933.14 3.70 933.14-34.59L933.14-34.59L933.14-34.59Q933.14-61.79 948.12-79.36L948.12-79.36L948.12-79.36Q964.03-98.05 991.60-98.05L991.60-98.05L991.60-98.05Q1011.58-98.05 1021.75-88.80L1021.75-88.80L1021.75-88.80Q1031.93-79.55 1031.93-60.13L1031.93-60.13L1031.93-60.13Q1031.93-30.52 1016.02-13.32L1016.02-13.32L1016.02-13.32Q1000.48 3.70 973.84 3.70ZM978.65-76.78L978.65-76.78L978.65-76.78Q976.43-71.78 974.67-64.29L974.67-64.29L974.67-64.29Q972.91-56.80 970.69-44.95L970.69-44.95L970.69-44.95Q968.47-33.12 968.47-18.50L968.47-18.50L968.47-18.50Q968.47-13.69 970.05-10.54L970.05-10.54L970.05-10.54Q971.62-7.40 975.87-7.40L975.87-7.40L975.87-7.40Q980.13-7.40 982.81-9.44L982.81-9.44L982.81-9.44Q985.49-11.47 987.53-16.28L987.53-16.28L987.53-16.28Q991.23-24.79 994.19-40.61L994.19-40.61L994.19-40.61Q997.15-56.42 997.43-63.27L997.43-63.27L997.43-63.27Q997.70-70.11 997.70-75.20L997.70-75.20L997.70-75.20Q997.70-80.29 996.22-83.62L996.22-83.62L996.22-83.62Q994.74-86.95 990.58-86.95L990.58-86.95L990.58-86.95Q986.42-86.95 983.64-84.36L983.64-84.36L983.64-84.36Q980.87-81.77 978.65-76.78ZM1129.05-12.67L1129.05-12.67L1129.05-12.67Q1121.28-4.81 1110.65-0.55L1110.65-0.55L1110.65-0.55Q1100.01 3.70 1089.46 3.70L1089.46 3.70L1089.46 3.70Q1078.92 3.70 1075.22 1.85L1075.22 1.85L1069.48 33.30L1031.93 37L1057.46-94.35L1087.61-97.50L1085.21-84.73L1085.21-84.73Q1092.98-97.86 1109.07-97.86L1109.07-97.86L1109.07-97.86Q1127.20-97.86 1136.82-86.21L1136.82-86.21L1136.82-86.21Q1145.33-75.66 1145.33-59.57L1145.33-59.57L1145.33-59.57Q1145.33-43.48 1141.08-32.01L1141.08-32.01L1141.08-32.01Q1136.82-20.54 1129.05-12.67ZM1087.24-64.56L1077.44-10.36L1077.44-10.36Q1081.32-7.03 1086.13-7.03L1086.13-7.03L1086.13-7.03Q1090.94-7.03 1093.72-8.88L1093.72-8.88L1093.72-8.88Q1096.49-10.73 1098.53-14.43L1098.53-14.43L1098.53-14.43Q1104.08-24.42 1108.52-54.76L1108.52-54.76L1108.52-54.76Q1109.81-63.64 1109.81-72.33L1109.81-72.33L1109.81-72.33Q1109.81-81.03 1107.87-83.80L1107.87-83.80L1107.87-83.80Q1105.93-86.58 1102.23-86.58L1102.23-86.58L1102.23-86.58Q1090.94-86.58 1087.24-64.56L1087.24-64.56ZM1231.36-31.27L1231.36-31.27L1231.36-31.27Q1235.98-28.12 1235.98-21.18L1235.98-21.18L1235.98-21.18Q1235.98-14.24 1232.47-9.80L1232.47-9.80L1232.47-9.80Q1228.95-5.37 1223.22-2.40L1223.22-2.40L1223.22-2.40Q1211.38 3.70 1198.61 3.70L1198.61 3.70L1198.61 3.70Q1185.85 3.70 1178.36 0.93L1178.36 0.93L1178.36 0.93Q1170.86-1.85 1165.87-7.03L1165.87-7.03L1165.87-7.03Q1156.06-16.84 1156.06-34.78L1156.06-34.78L1156.06-34.78Q1156.06-62.71 1171.23-79.73L1171.23-79.73L1171.23-79.73Q1187.51-98.05 1215.82-98.05L1215.82-98.05L1215.82-98.05Q1233.39-98.05 1242.09-90.65L1242.09-90.65L1242.09-90.65Q1248.56-85.10 1248.56-76.03L1248.56-76.03L1248.56-76.03Q1248.56-43.48 1192.32-43.48L1192.32-43.48L1192.32-43.48Q1191.58-38.66 1191.58-34.59L1191.58-34.59L1191.58-34.59Q1191.58-26.09 1195.38-22.85L1195.38-22.85L1195.38-22.85Q1199.17-19.61 1206.20-19.61L1206.20-19.61L1206.20-19.61Q1213.23-19.61 1220.72-22.85L1220.72-22.85L1220.72-22.85Q1228.21-26.09 1231.36-31.27ZM1193.62-51.43L1193.62-51.43L1193.62-51.43Q1206.75-51.43 1214.34-59.57L1214.34-59.57L1214.34-59.57Q1221.92-67.34 1221.92-79.73L1221.92-79.73L1221.92-79.73Q1221.92-83.99 1220.35-86.30L1220.35-86.30L1220.35-86.30Q1218.78-88.61 1215.63-88.61L1215.63-88.61L1215.63-88.61Q1212.49-88.61 1209.81-87.41L1209.81-87.41L1209.81-87.41Q1207.12-86.21 1204.35-82.14L1204.35-82.14L1204.35-82.14Q1197.50-72.89 1193.62-51.43ZM1312.76-51.98L1312.76-51.98L1312.76-51.98Q1319.42-63.82 1319.42-75.85L1319.42-75.85L1319.42-75.85Q1319.42-83.80 1313.68-83.80L1313.68-83.80L1313.68-83.80Q1309.24-83.80 1304.62-76.22L1304.62-76.22L1304.62-76.22Q1299.81-68.64 1298.33-58.83L1298.33-58.83L1288.71 0L1250.41 3.70L1269.28-94.35L1299.81-98.05L1296.48-79.36L1296.48-79.36Q1305.54-98.05 1325.89-98.05L1325.89-98.05L1325.89-98.05Q1336.62-98.05 1342.45-92.50L1342.45-92.50L1342.45-92.50Q1348.28-86.95 1348.28-75.57L1348.28-75.57L1348.28-75.57Q1348.28-64.19 1340.79-56.98L1340.79-56.98L1340.79-56.98Q1333.29-49.77 1320.53-49.77L1320.53-49.77L1320.53-49.77Q1314.98-49.77 1312.76-51.98Z" fill="#5699d2"></path></g></g><style>text {
  font-size: 64px;
  font-family: Arial Black;
  dominant-baseline: central;
  text-anchor: middle;
}</style></svg>