<svg width="1875.805126953125px" height="315.71494750976564px" xmlns="http://www.w3.org/2000/svg" viewBox="-687.9025634765625 -82.85747375488282 1875.805126953125 315.71494750976564" style="background: rgb(253, 253, 253);" preserveAspectRatio="xMidYMid"><defs><filter id="editing-extrusion" x="-100%" y="-100%" width="300%" height="300%"><feFlood result="color1" flood-color="#bbcedd"></feFlood><feConvolveMatrix order="8,8" divisor="1" kernelMatrix="1 0 0 0 0 0 0 0 0 1 0 0 0 0 0 0 0 0 1 0 0 0 0 0 0 0 0 1 0 0 0 0 0 0 0 0 1 0 0 0 0 0 0 0 0 1 0 0 0 0 0 0 0 0 1 0 0 0 0 0 0 0 0 1" in="SourceAlpha" result="extrude"></feConvolveMatrix><feComposite in="color1" in2="extrude" result="comp-extrude" operator="in"></feComposite><feOffset dx="4" dy="4" in="comp-extrude" result="offset-extrude"></feOffset><feMerge><feMergeNode in="offset-extrude"></feMergeNode><feMergeNode in="SourceGraphic"></feMergeNode></feMerge></filter></defs><g filter="url(#editing-extrusion)"><g transform="translate(-431.1318383216858, 161.02000427246094)"><path d="M76.30-124.73L76.30-124.73L76.30-124.73Q122.11-124.73 122.11-92.38L122.11-92.38L122.11-92.38Q122.11-74.61 110.70-63.95L110.70-63.95L110.70-63.95Q99.48-53.30 79.85-53.30L79.85-53.30L79.85-53.30Q70.69-53.30 63.58-58.53L63.58-58.53L63.58-58.53Q60.21-60.77 57.97-63.77L57.97-63.77L57.97-63.77Q71.62-63.77 78.82-72.09L78.82-72.09L78.82-72.09Q86.02-80.41 86.02-96.68L86.02-96.68L86.02-96.68Q86.02-112.95 69.94-112.95L69.94-112.95L65.45-112.95L65.45-112.95Q64.33-112.95 63.39-112.76L63.39-112.76L41.89 0L1.31 0L24.31-122.48L24.31-122.48Q44.32-124.36 55.91-124.54L55.91-124.54L55.91-124.54Q67.51-124.73 76.30-124.73ZM201.21-28.80L201.21-28.80L201.21-28.80Q204.76-24.31 204.76-15.61L204.76-15.61L204.76-15.61Q204.76-6.92 198.13-1.59L198.13-1.59L198.13-1.59Q191.49 3.74 179.89 3.74L179.89 3.74L179.89 3.74Q173.16 3.74 162.69 2.24L162.69 2.24L162.69 2.24Q142.12-0.94 136.23-0.94L136.23-0.94L136.23-0.94Q130.34-0.94 127.91-0.65L127.91-0.65L127.91-0.65Q125.48-0.37 121.55 0L121.55 0L144.18-123.42L185.13-123.42L166.43-20.57L166.43-20.57Q168.86-20.20 171.11-20.20L171.11-20.20L175.78-20.20L175.78-20.20Q191.49-20.20 201.21-28.80ZM299.39 3.74L299.39 3.74L299.39 3.74Q275.45 3.74 273.21-30.29L273.21-30.29L241.04-30.29L241.04-30.29Q237.30-21.69 234.69-14.21L234.69-14.21L229.82 0L203.64 0L262.55-123.42L302.75-123.42L310.61-32.54L310.61-32.54Q312.48-12.90 319.96-7.11L319.96-7.11L319.96-7.11Q314.53 3.74 299.39 3.74ZM257.13-67.69L246.84-43.95L272.65-43.95L270.40-92.00L270.40-97.05L257.13-67.69ZM426.36-38.71L426.36-38.71L426.36-38.71Q431.22-35.16 431.22-27.58L431.22-27.58L431.22-27.58Q431.22-20.01 427.95-14.68L427.95-14.68L427.95-14.68Q424.68-9.35 418.32-5.24L418.32-5.24L418.32-5.24Q404.67 3.55 380.83 3.55L380.83 3.55L380.83 3.55Q356.98 3.55 343.99-8.88L343.99-8.88L343.99-8.88Q330.99-21.32 330.99-43.38L330.99-43.38L330.99-43.38Q330.99-74.61 347.26-98.36L347.26-98.36L347.26-98.36Q359.60-115.94 381.67-123.42L381.67-123.42L381.67-123.42Q393.07-127.16 404.29-127.16L404.29-127.16L404.29-127.16Q415.51-127.16 422.43-125.66L422.43-125.66L422.43-125.66Q429.35-124.17 434.59-121.18L434.59-121.18L434.59-121.18Q446.00-114.63 446.00-104.16L446.00-104.16L446.00-104.16Q446.00-94.62 437.02-87.52L437.02-87.52L437.02-87.52Q428.79-81.16 422.06-81.16L422.06-81.16L422.06-81.16Q415.33-81.16 412.52-82.09L412.52-82.09L412.52-82.09Q413.27-88.83 413.27-93.22L413.27-93.22L413.27-93.22Q413.27-97.61 413.08-100.79L413.08-100.79L413.08-100.79Q412.90-103.97 411.96-106.96L411.96-106.96L411.96-106.96Q410.09-113.88 404.39-113.88L404.39-113.88L404.39-113.88Q398.68-113.88 392.98-108.55L392.98-108.55L392.98-108.55Q387.28-103.22 382.42-94.25L382.42-94.25L382.42-94.25Q371.38-73.86 371.38-49.74L371.38-49.74L371.38-49.74Q371.38-38.15 377.93-31.51L377.93-31.51L377.93-31.51Q384.47-24.87 398.50-24.87L398.50-24.87L398.50-24.87Q408.97-24.87 418.88-31.79L418.88-31.79L418.88-31.79Q423.18-34.78 426.36-38.71ZM568.11-77.61L568.11-77.61L568.11-77.61Q568.11 2.06 481.71 2.06L481.71 2.06L481.71 2.06Q467.87 2.06 445.06-1.31L445.06-1.31L466.00-111.83L466.00-111.83Q467.50-119.31 468.44-123.61L468.44-123.61L468.44-123.61Q496.86-125.66 509.48-125.66L509.48-125.66L509.48-125.66Q522.10-125.66 533.70-123.05L533.70-123.05L533.70-123.05Q545.29-120.43 552.96-114.63L552.96-114.63L552.96-114.63Q568.11-103.22 568.11-77.61ZM529.58-84.52L529.58-84.52L529.58-84.52Q529.58-112.39 509.58-112.39L509.58-112.39L507.71-112.39L507.71-112.39Q506.77-112.39 505.84-112.20L505.84-112.20L486.57-11.78L486.57-11.78Q487.32-11.41 488.07-11.41L488.07-11.41L489.57-11.41L489.57-11.41Q496.49-11.41 503.68-15.71L503.68-15.71L503.68-15.71Q510.88-20.01 516.49-28.80L516.49-28.80L516.49-28.80Q529.58-49.18 529.58-84.52ZM653.38-31.60L653.38-31.60L653.38-31.60Q658.05-28.42 658.05-21.41L658.05-21.41L658.05-21.41Q658.05-14.40 654.50-9.91L654.50-9.91L654.50-9.91Q650.95-5.42 645.15-2.43L645.15-2.43L645.15-2.43Q633.18 3.74 620.28 3.74L620.28 3.74L620.28 3.74Q607.38 3.74 599.80 0.94L599.80 0.94L599.80 0.94Q592.23-1.87 587.18-7.11L587.18-7.11L587.18-7.11Q577.27-17.02 577.27-35.16L577.27-35.16L577.27-35.16Q577.27-63.39 592.60-80.60L592.60-80.60L592.60-80.60Q609.06-99.11 637.67-99.11L637.67-99.11L637.67-99.11Q655.44-99.11 664.22-91.63L664.22-91.63L664.22-91.63Q670.77-86.02 670.77-76.86L670.77-76.86L670.77-76.86Q670.77-43.95 613.92-43.95L613.92-43.95L613.92-43.95Q613.17-39.08 613.17-34.97L613.17-34.97L613.17-34.97Q613.17-26.37 617.01-23.09L617.01-23.09L617.01-23.09Q620.84-19.82 627.95-19.82L627.95-19.82L627.95-19.82Q635.05-19.82 642.63-23.09L642.63-23.09L642.63-23.09Q650.20-26.37 653.38-31.60ZM615.23-51.99L615.23-51.99L615.23-51.99Q628.51-51.99 636.17-60.21L636.17-60.21L636.17-60.21Q643.84-68.07 643.84-80.60L643.84-80.60L643.84-80.60Q643.84-84.90 642.25-87.24L642.25-87.24L642.25-87.24Q640.66-89.57 637.48-89.57L637.48-89.57L637.48-89.57Q634.30-89.57 631.59-88.36L631.59-88.36L631.59-88.36Q628.88-87.14 626.08-83.03L626.08-83.03L626.08-83.03Q619.16-73.68 615.23-51.99ZM745.01-92.19L745.01-92.19L745.01-92.19Q751.18-99.11 761.84-99.11L761.84-99.11L761.84-99.11Q768.38-99.11 773.43-95.56L773.43-95.56L773.43-95.56Q778.48-92.00 778.48-85.37L778.48-85.37L778.48-85.37Q778.48-78.73 776.42-71.62L776.42-71.62L776.42-71.62Q774.37-64.52 771.19-57.22L771.19-57.22L771.19-57.22Q764.83-43.01 756.04-31.23L756.04-31.23L756.04-31.23Q743.70-14.21 731.82-5.24L731.82-5.24L731.82-5.24Q719.95 3.74 707.05 3.74L707.05 3.74L707.05 3.74Q696.58 3.74 690.22 1.31L690.22 1.31L690.22 1.31Q689.10-37.96 687.69-51.99L687.69-51.99L687.69-51.99Q686.29-66.01 685.17-73.68L685.17-73.68L685.17-73.68Q683.30-88.64 677.69-92.19L677.69-92.19L677.69-92.19Q681.99-95.93 686.20-97.52L686.20-97.52L686.20-97.52Q690.40-99.11 699.10-99.11L699.10-99.11L699.10-99.11Q707.80-99.11 713.97-92.28L713.97-92.28L713.97-92.28Q720.14-85.46 721.35-73.40L721.35-73.40L721.35-73.40Q722.57-61.34 722.57-46.75L722.57-46.75L722.57-46.75Q722.57-32.16 721.45-14.59L721.45-14.59L721.45-14.59Q727.24-18.70 733.41-31.23L733.41-31.23L733.41-31.23Q741.83-48.62 744.82-69.56L744.82-69.56L744.82-69.56Q745.76-75.92 745.76-82.65L745.76-82.65L745.76-82.65Q745.76-89.39 745.01-92.19ZM859.27-31.60L859.27-31.60L859.27-31.60Q863.94-28.42 863.94-21.41L863.94-21.41L863.94-21.41Q863.94-14.40 860.39-9.91L860.39-9.91L860.39-9.91Q856.83-5.42 851.04-2.43L851.04-2.43L851.04-2.43Q839.07 3.74 826.17 3.74L826.17 3.74L826.17 3.74Q813.26 3.74 805.69 0.94L805.69 0.94L805.69 0.94Q798.12-1.87 793.07-7.11L793.07-7.11L793.07-7.11Q783.16-17.02 783.16-35.16L783.16-35.16L783.16-35.16Q783.16-63.39 798.49-80.60L798.49-80.60L798.49-80.60Q814.95-99.11 843.56-99.11L843.56-99.11L843.56-99.11Q861.32-99.11 870.11-91.63L870.11-91.63L870.11-91.63Q876.66-86.02 876.66-76.86L876.66-76.86L876.66-76.86Q876.66-43.95 819.81-43.95L819.81-43.95L819.81-43.95Q819.06-39.08 819.06-34.97L819.06-34.97L819.06-34.97Q819.06-26.37 822.89-23.09L822.89-23.09L822.89-23.09Q826.73-19.82 833.83-19.82L833.83-19.82L833.83-19.82Q840.94-19.82 848.51-23.09L848.51-23.09L848.51-23.09Q856.09-26.37 859.27-31.60ZM821.12-51.99L821.12-51.99L821.12-51.99Q834.39-51.99 842.06-60.21L842.06-60.21L842.06-60.21Q849.73-68.07 849.73-80.60L849.73-80.60L849.73-80.60Q849.73-84.90 848.14-87.24L848.14-87.24L848.14-87.24Q846.55-89.57 843.37-89.57L843.37-89.57L843.37-89.57Q840.19-89.57 837.48-88.36L837.48-88.36L837.48-88.36Q834.77-87.14 831.96-83.03L831.96-83.03L831.96-83.03Q825.04-73.68 821.12-51.99ZM927.71-10.29L927.71-10.29L927.71-10.29Q921.91 3.74 903.40 3.74L903.40 3.74L903.40 3.74Q894.05 3.74 888.06-2.81L888.06-2.81L888.06-2.81Q883.20-8.23 883.20-14.40L883.20-14.40L883.20-14.40Q883.20-28.42 889.75-59.09L889.75-59.09L903.40-130.90L941.36-134.64L923.22-40.02L923.22-40.02Q920.04-26.18 920.04-21.32L920.04-21.32L920.04-21.32Q920.04-10.66 927.71-10.29ZM984.37 3.74L984.37 3.74L984.37 3.74Q943.23 3.74 943.23-34.97L943.23-34.97L943.23-34.97Q943.23-62.46 958.38-80.22L958.38-80.22L958.38-80.22Q974.46-99.11 1002.32-99.11L1002.32-99.11L1002.32-99.11Q1022.52-99.11 1032.80-89.76L1032.80-89.76L1032.80-89.76Q1043.09-80.41 1043.09-60.77L1043.09-60.77L1043.09-60.77Q1043.09-30.86 1027.00-13.46L1027.00-13.46L1027.00-13.46Q1011.30 3.74 984.37 3.74ZM989.23-77.61L989.23-77.61L989.23-77.61Q986.99-72.56 985.21-64.98L985.21-64.98L985.21-64.98Q983.43-57.41 981.19-45.44L981.19-45.44L981.19-45.44Q978.95-33.47 978.95-18.70L978.95-18.70L978.95-18.70Q978.95-13.84 980.53-10.66L980.53-10.66L980.53-10.66Q982.12-7.48 986.43-7.48L986.43-7.48L986.43-7.48Q990.73-7.48 993.44-9.54L993.44-9.54L993.44-9.54Q996.15-11.59 998.21-16.46L998.21-16.46L998.21-16.46Q1001.95-25.06 1004.94-41.05L1004.94-41.05L1004.94-41.05Q1007.93-57.03 1008.21-63.95L1008.21-63.95L1008.21-63.95Q1008.49-70.87 1008.49-76.02L1008.49-76.02L1008.49-76.02Q1008.49-81.16 1007.00-84.52L1007.00-84.52L1007.00-84.52Q1005.50-87.89 1001.29-87.89L1001.29-87.89L1001.29-87.89Q997.08-87.89 994.28-85.27L994.28-85.27L994.28-85.27Q991.47-82.65 989.23-77.61ZM1141.26-12.81L1141.26-12.81L1141.26-12.81Q1133.41-4.86 1122.65-0.56L1122.65-0.56L1122.65-0.56Q1111.90 3.74 1101.24 3.74L1101.24 3.74L1101.24 3.74Q1090.58 3.74 1086.84 1.87L1086.84 1.87L1081.05 33.66L1043.09 37.40L1068.89-95.37L1099.37-98.55L1096.94-85.65L1096.94-85.65Q1104.80-98.92 1121.07-98.92L1121.07-98.92L1121.07-98.92Q1139.39-98.92 1149.12-87.14L1149.12-87.14L1149.12-87.14Q1157.72-76.48 1157.72-60.21L1157.72-60.21L1157.72-60.21Q1157.72-43.95 1153.42-32.35L1153.42-32.35L1153.42-32.35Q1149.12-20.76 1141.26-12.81ZM1099.00-65.26L1089.09-10.47L1089.09-10.47Q1093.02-7.11 1097.88-7.11L1097.88-7.11L1097.88-7.11Q1102.74-7.11 1105.54-8.98L1105.54-8.98L1105.54-8.98Q1108.35-10.85 1110.41-14.59L1110.41-14.59L1110.41-14.59Q1116.02-24.68 1120.50-55.35L1120.50-55.35L1120.50-55.35Q1121.81-64.33 1121.81-73.12L1121.81-73.12L1121.81-73.12Q1121.81-81.91 1119.85-84.71L1119.85-84.71L1119.85-84.71Q1117.89-87.52 1114.15-87.52L1114.15-87.52L1114.15-87.52Q1102.74-87.52 1099.00-65.26L1099.00-65.26ZM1244.67-31.60L1244.67-31.60L1244.67-31.60Q1249.35-28.42 1249.35-21.41L1249.35-21.41L1249.35-21.41Q1249.35-14.40 1245.79-9.91L1245.79-9.91L1245.79-9.91Q1242.24-5.42 1236.44-2.43L1236.44-2.43L1236.44-2.43Q1224.48 3.74 1211.57 3.74L1211.57 3.74L1211.57 3.74Q1198.67 3.74 1191.10 0.94L1191.10 0.94L1191.10 0.94Q1183.52-1.87 1178.47-7.11L1178.47-7.11L1178.47-7.11Q1168.56-17.02 1168.56-35.16L1168.56-35.16L1168.56-35.16Q1168.56-63.39 1183.90-80.60L1183.90-80.60L1183.90-80.60Q1200.35-99.11 1228.96-99.11L1228.96-99.11L1228.96-99.11Q1246.73-99.11 1255.52-91.63L1255.52-91.63L1255.52-91.63Q1262.06-86.02 1262.06-76.86L1262.06-76.86L1262.06-76.86Q1262.06-43.95 1205.22-43.95L1205.22-43.95L1205.22-43.95Q1204.47-39.08 1204.47-34.97L1204.47-34.97L1204.47-34.97Q1204.47-26.37 1208.30-23.09L1208.30-23.09L1208.30-23.09Q1212.13-19.82 1219.24-19.82L1219.24-19.82L1219.24-19.82Q1226.35-19.82 1233.92-23.09L1233.92-23.09L1233.92-23.09Q1241.49-26.37 1244.67-31.60ZM1206.52-51.99L1206.52-51.99L1206.52-51.99Q1219.80-51.99 1227.47-60.21L1227.47-60.21L1227.47-60.21Q1235.13-68.07 1235.13-80.60L1235.13-80.60L1235.13-80.60Q1235.13-84.90 1233.55-87.24L1233.55-87.24L1233.55-87.24Q1231.96-89.57 1228.78-89.57L1228.78-89.57L1228.78-89.57Q1225.60-89.57 1222.89-88.36L1222.89-88.36L1222.89-88.36Q1220.17-87.14 1217.37-83.03L1217.37-83.03L1217.37-83.03Q1210.45-73.68 1206.52-51.99ZM1326.95-52.55L1326.95-52.55L1326.95-52.55Q1333.68-64.52 1333.68-76.67L1333.68-76.67L1333.68-76.67Q1333.68-84.71 1327.89-84.71L1327.89-84.71L1327.89-84.71Q1323.40-84.71 1318.72-77.04L1318.72-77.04L1318.72-77.04Q1313.86-69.38 1312.37-59.47L1312.37-59.47L1302.64 0L1263.93 3.74L1283.01-95.37L1313.86-99.11L1310.50-80.22L1310.50-80.22Q1319.66-99.11 1340.23-99.11L1340.23-99.11L1340.23-99.11Q1351.08-99.11 1356.97-93.50L1356.97-93.50L1356.97-93.50Q1362.86-87.89 1362.86-76.39L1362.86-76.39L1362.86-76.39Q1362.86-64.89 1355.28-57.60L1355.28-57.60L1355.28-57.60Q1347.71-50.30 1334.81-50.30L1334.81-50.30L1334.81-50.30Q1329.20-50.30 1326.95-52.55Z" fill="#435968"></path></g></g><style>text {
  font-size: 64px;
  font-family: Arial Black;
  dominant-baseline: central;
  text-anchor: middle;
}</style></svg>